<svg width="1436" height="1024" viewBox="0 0 1436 1024" fill="none" xmlns="http://www.w3.org/2000/svg">
<path d="M416.795 103.018L423.272 52.7809C423.661 49.7627 426.62 46.0651 429.882 44.5219L441.692 38.9342C444.953 37.3911 447.282 38.5872 446.893 41.6056L442.53 75.4478L520.853 38.3926C524.114 36.8497 526.443 38.0458 526.054 41.0639L524.645 51.9942C524.255 55.0124 521.296 58.71 518.035 60.2531L421.996 105.69C418.735 107.233 416.406 106.037 416.795 103.018V103.018Z" fill="black" fill-opacity="0.04"/>
<path d="M55.5405 997.342L62.0169 947.105C62.406 944.086 65.3653 940.389 68.6267 938.846L80.4369 933.258C83.6983 931.715 86.0269 932.911 85.6376 935.929L81.2749 969.772L159.598 932.716C162.859 931.173 165.188 932.369 164.799 935.388L163.39 946.318C163.001 949.336 160.041 953.034 156.78 954.577L60.7409 1000.01C57.4796 1001.56 55.1512 1000.36 55.5405 997.342V997.342Z" fill="black" fill-opacity="0.04"/>
<path d="M940.408 667.524L929.984 628.817C929.358 626.491 930.964 623.679 933.572 622.535L943.016 618.394C945.624 617.25 948.246 618.209 948.872 620.534L955.894 646.609L1018.52 619.146C1021.13 618.002 1023.75 618.96 1024.38 621.286L1026.65 629.707C1027.28 632.033 1025.67 634.845 1023.06 635.989L946.264 669.664C943.656 670.808 941.034 669.849 940.408 667.524V667.524Z" fill="black" fill-opacity="0.04"/>
<path d="M746.411 186.294L783.515 145.465C785.744 143.012 790.625 141.003 794.416 140.977L808.145 140.886C811.937 140.86 813.203 142.828 810.974 145.282L785.979 172.786L877.029 172.179C880.82 172.154 882.086 174.122 879.857 176.575L871.784 185.458C869.555 187.911 864.675 189.92 860.883 189.946L749.239 190.69C745.448 190.715 744.181 188.747 746.411 186.294V186.294Z" fill="black" fill-opacity="0.04"/>
<path d="M889.497 67.5094L926.601 26.68C928.83 24.2271 933.71 22.218 937.502 22.1926L951.231 22.101C955.023 22.0756 956.289 24.0438 954.06 26.4969L929.065 54.0014L1020.11 53.3945C1023.91 53.3692 1025.17 55.3374 1022.94 57.7904L1014.87 66.6736C1012.64 69.1266 1007.76 71.1356 1003.97 71.161L892.325 71.9054C888.533 71.9306 887.267 69.9625 889.497 67.5094V67.5094Z" fill="black" fill-opacity="0.04"/>
<path d="M691.514 436.604L681.09 397.897C680.464 395.572 682.07 392.76 684.678 391.616L694.122 387.475C696.73 386.331 699.352 387.289 699.978 389.615L707 415.689L769.631 388.226C772.239 387.083 774.861 388.041 775.487 390.366L777.755 398.788C778.381 401.113 776.775 403.926 774.167 405.069L697.37 438.745C694.762 439.888 692.14 438.93 691.514 436.604V436.604Z" fill="black" fill-opacity="0.04"/>
<path d="M1117.64 732.294L1107.21 693.587C1106.59 691.262 1108.19 688.449 1110.8 687.306L1120.24 683.164C1122.85 682.021 1125.47 682.979 1126.1 685.305L1133.12 711.379L1195.75 683.916C1198.36 682.772 1200.98 683.731 1201.61 686.056L1203.88 694.478C1204.5 696.803 1202.9 699.615 1200.29 700.759L1123.49 734.434C1120.88 735.578 1118.26 734.62 1117.64 732.294V732.294Z" fill="black" fill-opacity="0.04"/>
<path d="M1318.99 536.198L1325.49 485.991C1325.88 482.974 1328.85 479.278 1332.11 477.735L1343.93 472.148C1347.19 470.605 1349.52 471.8 1349.13 474.817L1344.76 508.639L1423.15 471.588C1426.41 470.045 1428.74 471.24 1428.35 474.256L1426.93 485.18C1426.54 488.197 1423.58 491.893 1420.32 493.436L1324.2 538.867C1320.93 540.41 1318.6 539.215 1318.99 536.198V536.198Z" fill="black" fill-opacity="0.04"/>
<path d="M1364.91 611.547L1335.33 579.296C1333.56 577.358 1333.56 574.216 1335.33 572.279L1341.77 565.262C1343.54 563.324 1346.43 563.324 1348.2 565.262L1368.12 586.987L1410.8 540.453C1412.57 538.516 1415.46 538.516 1417.23 540.453L1423.67 547.47C1425.44 549.408 1425.44 552.549 1423.67 554.487L1371.34 611.547C1369.57 613.484 1366.68 613.484 1364.91 611.547V611.547Z" fill="black" fill-opacity="0.04"/>
<path d="M1132.25 315.547L1102.35 283.296C1100.55 281.358 1100.55 278.216 1102.35 276.279L1108.85 269.262C1110.65 267.324 1113.56 267.324 1115.36 269.262L1135.5 290.987L1178.64 244.453C1180.44 242.516 1183.35 242.516 1185.15 244.453L1191.65 251.47C1193.45 253.408 1193.45 256.549 1191.65 258.487L1138.75 315.547C1136.96 317.484 1134.04 317.484 1132.25 315.547V315.547Z" fill="black" fill-opacity="0.04"/>
<path d="M1254.91 184.566L1225.33 152.751C1223.56 150.84 1223.56 147.741 1225.33 145.829L1231.77 138.907C1233.54 136.995 1236.43 136.995 1238.2 138.907L1258.12 160.339L1300.8 114.434C1302.57 112.522 1305.46 112.522 1307.23 114.434L1313.67 121.356C1315.44 123.267 1315.44 126.366 1313.67 128.278L1261.34 184.566C1259.57 186.478 1256.68 186.478 1254.91 184.566V184.566Z" fill="black" fill-opacity="0.04"/>
<path d="M1251.27 937.547L1220.39 905.296C1218.54 903.358 1218.54 900.216 1220.39 898.279L1227.11 891.262C1228.96 889.324 1231.97 889.324 1233.83 891.262L1254.62 912.987L1299.17 866.453C1301.03 864.516 1304.04 864.516 1305.89 866.453L1312.61 873.47C1314.46 875.408 1314.46 878.549 1312.61 880.487L1257.98 937.547C1256.13 939.484 1253.12 939.484 1251.27 937.547V937.547Z" fill="black" fill-opacity="0.04"/>
<path d="M147.752 664.021L184.066 692.303C186.247 694.002 186.846 697.092 185.404 699.205L180.18 706.857C178.737 708.97 175.799 709.305 173.617 707.606L149.155 688.554L114.508 739.296C113.066 741.409 110.128 741.744 107.946 740.045L100.045 733.892C97.8637 732.193 97.2646 729.102 98.7071 726.989L141.19 664.77C142.632 662.657 145.571 662.321 147.752 664.021V664.021Z" fill="black" fill-opacity="0.04"/>
<path d="M1292.65 372.439L1299.15 322.231C1299.54 319.214 1302.5 315.518 1305.76 313.975L1317.58 308.388C1320.85 306.845 1323.18 308.04 1322.79 311.057L1318.41 344.879L1396.8 307.828C1400.06 306.285 1402.39 307.48 1402 310.497L1400.59 321.42C1400.2 324.437 1397.24 328.133 1393.97 329.676L1297.85 375.107C1294.59 376.65 1292.26 375.455 1292.65 372.439V372.439Z" fill="black" fill-opacity="0.04"/>
<path d="M1195.26 604.39L1230.99 610.765C1235.38 611.548 1239.72 609.339 1240.7 605.831L1242.48 599.479C1243.45 595.972 1240.69 592.495 1236.31 591.711L1200.58 585.336L1208.55 556.757C1209.53 553.25 1206.76 549.773 1202.38 548.989L1194.44 547.572C1190.05 546.79 1185.71 548.999 1184.73 552.507L1176.76 581.086L1141.03 574.711C1136.64 573.928 1132.3 576.137 1131.32 579.645L1129.54 585.997C1128.57 589.504 1131.33 592.983 1135.71 593.765L1171.44 600.14L1163.47 628.719C1162.49 632.226 1165.26 635.704 1169.64 636.487L1177.58 637.904C1181.97 638.686 1186.31 636.477 1187.29 632.969L1195.26 604.39Z" fill="black" fill-opacity="0.04"/>
<path d="M643.438 56L669.593 34.9626C672.802 32.381 672.802 28.1953 669.593 25.6116L663.78 20.9362C660.571 18.3546 655.367 18.3546 652.155 20.9362L626 41.9736L599.845 20.9362C596.636 18.3546 591.432 18.3546 588.22 20.9362L582.407 25.6116C579.198 28.1932 579.198 32.3789 582.407 34.9626L608.562 56L582.407 77.0374C579.198 79.619 579.198 83.8047 582.407 86.3883L588.22 91.0638C591.429 93.6454 596.636 93.6454 599.845 91.0638L626 70.0264L652.155 91.0638C655.364 93.6454 660.571 93.6454 663.78 91.0638L669.593 86.3883C672.802 83.8068 672.802 79.6211 669.593 77.0374L643.438 56Z" fill="black" fill-opacity="0.04"/>
<path d="M1255.75 391L1281.62 370.531C1284.79 368.019 1284.79 363.947 1281.62 361.433L1275.87 356.884C1272.69 354.372 1267.55 354.372 1264.37 356.884L1238.5 377.353L1212.63 356.884C1209.45 354.372 1204.31 354.372 1201.13 356.884L1195.38 361.433C1192.21 363.945 1192.21 368.017 1195.38 370.531L1221.25 391L1195.38 411.469C1192.21 413.981 1192.21 418.053 1195.38 420.567L1201.13 425.116C1204.31 427.628 1209.45 427.628 1212.63 425.116L1238.5 404.647L1264.37 425.116C1267.55 427.628 1272.69 427.628 1275.87 425.116L1281.62 420.567C1284.79 418.055 1284.79 413.983 1281.62 411.469L1255.75 391Z" fill="black" fill-opacity="0.04"/>
<path d="M974.977 238.519L1008.27 226.336C1012.35 224.841 1014.15 220.98 1012.28 217.711L1008.89 211.794C1007.02 208.526 1002.2 207.089 998.11 208.584L964.822 220.766L949.591 194.14C947.722 190.873 942.896 189.436 938.808 190.93L931.41 193.638C927.325 195.133 925.529 198.993 927.397 202.263L942.628 228.889L909.34 241.072C905.255 242.567 903.459 246.428 905.327 249.697L908.712 255.614C910.581 258.882 915.41 260.319 919.495 258.824L952.783 246.642L968.014 273.268C969.883 276.535 974.712 277.973 978.797 276.478L986.195 273.77C990.28 272.275 992.076 268.415 990.208 265.145L974.977 238.519Z" fill="black" fill-opacity="0.04"/>
<path d="M1096.42 107.855L1129.7 95.672C1133.79 94.177 1135.59 90.3162 1133.72 87.0469L1130.33 81.1293C1128.46 77.8619 1123.64 76.4251 1119.55 77.9194L1086.26 90.1022L1071.03 63.4759C1069.16 60.2085 1064.33 58.7716 1060.25 60.2659L1052.85 62.9735C1048.76 64.4685 1046.97 68.3292 1048.84 71.5986L1064.07 98.2248L1030.78 110.408C1026.69 111.903 1024.9 115.763 1026.77 119.033L1030.15 124.95C1032.02 128.218 1036.85 129.655 1040.93 128.16L1074.22 115.977L1089.45 142.604C1091.32 145.871 1096.15 147.309 1100.24 145.814L1107.63 143.106C1111.72 141.611 1113.51 137.75 1111.65 134.481L1096.42 107.855Z" fill="black" fill-opacity="0.04"/>
<path d="M1334.22 44.2269L1312.18 15.5747C1309.48 12.0586 1311.28 8.19791 1316.2 6.94958L1325.11 4.69228C1330.03 3.44589 1336.21 5.28582 1338.92 8.80277L1360.95 37.455L1401.05 27.2982C1405.97 26.0518 1412.15 27.8917 1414.85 31.4087L1419.75 37.7765C1422.46 41.2925 1420.66 45.1532 1415.74 46.4016L1375.64 56.5584L1397.68 85.2106C1400.39 88.7267 1398.59 92.5874 1393.67 93.8357L1384.76 96.093C1379.84 97.3394 1373.65 95.4986 1370.95 91.9825L1348.91 63.3303L1308.82 73.4871C1303.9 74.7335 1297.71 72.8927 1295.01 69.3766L1290.11 63.0088C1287.41 59.4928 1289.21 55.6321 1294.13 54.3837L1334.22 44.2269Z" fill="black" fill-opacity="0.04"/>
<path d="M1332.45 797.763L1309.8 769.11C1307.02 765.594 1308.87 761.734 1313.93 760.485L1323.08 758.228C1328.14 756.982 1334.49 758.822 1337.27 762.338L1359.92 790.991L1401.12 780.834C1406.18 779.587 1412.53 781.427 1415.32 784.944L1420.35 791.312C1423.13 794.828 1421.28 798.689 1416.22 799.937L1375.02 810.094L1397.67 838.746C1400.45 842.262 1398.6 846.123 1393.54 847.371L1384.39 849.629C1379.33 850.875 1372.97 849.034 1370.19 845.518L1347.55 816.866L1306.34 827.023C1301.29 828.269 1294.93 826.428 1292.15 822.912L1287.12 816.545C1284.34 813.029 1286.19 809.168 1291.24 807.919L1332.45 797.763Z" fill="black" fill-opacity="0.04"/>
<path d="M136.362 805.778L164.257 831.562C167.68 834.726 166.595 838.753 161.832 840.559L153.207 843.825C148.445 845.629 141.809 844.526 138.383 841.362L110.488 815.578L71.6801 830.276C66.9179 832.08 60.2823 830.977 56.8558 827.813L50.6564 822.082C47.2333 818.918 48.3189 814.891 53.0817 813.086L91.8895 798.387L63.9947 772.604C60.5716 769.44 61.6572 765.413 66.42 763.607L75.0449 760.34C79.8071 758.537 86.446 759.64 89.8691 762.804L117.764 788.588L156.572 773.889C161.334 772.086 167.973 773.189 171.396 776.353L177.595 782.083C181.019 785.247 179.933 789.275 175.17 791.08L136.362 805.778Z" fill="black" fill-opacity="0.04"/>
<path d="M226.453 490.52L176.34 459.843C173.329 457.999 170.939 454.047 171.001 451.015L171.225 440.034C171.287 437.002 173.779 436.038 176.789 437.881L210.548 458.547L212.038 385.726C212.1 382.694 214.591 381.73 217.602 383.573L228.505 390.247C231.515 392.091 233.906 396.043 233.844 399.075L232.017 488.368C231.955 491.4 229.464 492.364 226.453 490.52V490.52Z" fill="black" fill-opacity="0.04"/>
<path d="M351.376 480.39L387.105 486.765C391.489 487.547 395.837 485.338 396.817 481.83L398.588 475.478C399.566 471.971 396.805 468.494 392.419 467.71L356.69 461.335L364.66 432.757C365.638 429.25 362.877 425.772 358.491 424.988L350.55 423.572C346.166 422.789 341.819 424.998 340.838 428.506L332.868 457.085L297.139 450.71C292.755 449.927 288.408 452.136 287.428 455.644L285.656 461.996C284.678 465.503 287.441 468.982 291.826 469.764L327.554 476.139L319.584 504.718C318.606 508.225 321.369 511.704 325.754 512.486L333.694 513.903C338.079 514.685 342.426 512.476 343.406 508.968L351.376 480.39Z" fill="black" fill-opacity="0.04"/>
<path d="M764.343 813.851L800.072 820.227C804.457 821.009 808.804 818.8 809.784 815.292L811.555 808.94C812.533 805.433 809.772 801.956 805.386 801.172L769.657 794.797L777.627 766.219C778.605 762.712 775.844 759.234 771.458 758.45L763.517 757.033C759.133 756.251 754.786 758.46 753.806 761.968L745.835 790.547L710.107 784.172C705.722 783.389 701.375 785.598 700.395 789.106L698.623 795.458C697.645 798.965 700.408 802.444 704.793 803.226L740.522 809.601L732.552 838.18C731.574 841.687 734.336 845.166 738.721 845.948L746.661 847.365C751.046 848.147 755.393 845.938 756.373 842.43L764.343 813.851Z" fill="black" fill-opacity="0.04"/>
<path d="M351.749 317L377.619 295.963C380.794 293.381 380.794 289.195 377.619 286.612L371.869 281.936C368.695 279.355 363.548 279.355 360.37 281.936L334.5 302.974L308.63 281.936C305.455 279.355 300.308 279.355 297.131 281.936L291.381 286.612C288.206 289.193 288.206 293.379 291.381 295.963L317.251 317L291.381 338.037C288.206 340.619 288.206 344.805 291.381 347.388L297.131 352.064C300.305 354.645 305.455 354.645 308.63 352.064L334.5 331.026L360.37 352.064C363.545 354.645 368.695 354.645 371.869 352.064L377.619 347.388C380.794 344.807 380.794 340.621 377.619 338.037L351.749 317Z" fill="black" fill-opacity="0.04"/>
<path d="M838.68 651L863.698 629.963C866.768 627.381 866.768 623.195 863.698 620.612L858.137 615.936C855.067 613.355 850.09 613.355 847.018 615.936L822 636.974L796.983 615.936C793.913 613.355 788.935 613.355 785.863 615.936L780.303 620.612C777.233 623.193 777.233 627.379 780.303 629.963L805.32 651L780.303 672.037C777.233 674.619 777.233 678.805 780.303 681.388L785.863 686.064C788.933 688.645 793.913 688.645 796.983 686.064L822 665.026L847.018 686.064C850.088 688.645 855.067 688.645 858.137 686.064L863.698 681.388C866.768 678.807 866.768 674.621 863.698 672.037L838.68 651Z" fill="black" fill-opacity="0.04"/>
<path d="M41.5333 364.708L90.827 368.331C93.7885 368.549 96.6628 370.616 97.2469 372.949L99.362 381.396C99.9462 383.728 98.0186 385.443 95.057 385.225L61.8505 382.784L75.876 438.802C76.46 441.135 74.5325 442.849 71.571 442.632L60.8462 441.843C57.8847 441.626 55.0104 439.558 54.4263 437.226L37.2281 368.537C36.6442 366.204 38.5716 364.49 41.5333 364.708V364.708Z" fill="black" fill-opacity="0.04"/>
<path d="M160.384 507.308L209.677 510.932C212.639 511.149 215.513 513.217 216.097 515.549L218.212 523.996C218.796 526.329 216.869 528.043 213.907 527.826L180.701 525.385L194.726 581.403C195.31 583.735 193.383 585.45 190.421 585.232L179.696 584.444C176.735 584.226 173.861 582.159 173.277 579.826L156.078 511.137C155.494 508.805 157.422 507.09 160.384 507.308V507.308Z" fill="black" fill-opacity="0.04"/>
<path d="M235.447 838.48L284.74 842.103C287.702 842.321 290.576 844.388 291.16 846.721L293.275 855.168C293.86 857.5 291.932 859.215 288.97 858.997L255.764 856.556L269.79 912.575C270.374 914.907 268.446 916.622 265.484 916.404L254.76 915.616C251.798 915.398 248.924 913.33 248.34 910.998L231.142 842.309C230.558 839.977 232.485 838.262 235.447 838.48V838.48Z" fill="black" fill-opacity="0.04"/>
<path d="M355.192 190.86L303.939 188.339C297.65 188.029 291.7 183.75 290.647 178.778L288.745 169.777C287.694 164.807 291.942 161.029 298.233 161.337L349.486 163.858L340.928 123.36C339.878 118.39 344.125 114.612 350.416 114.92L361.807 115.48C368.096 115.789 374.046 120.069 375.099 125.041L383.657 165.54L434.91 168.061C441.199 168.37 447.149 172.65 448.203 177.622L450.105 186.623C451.155 191.592 446.905 195.372 440.616 195.063L389.363 192.541L397.921 233.04C398.972 238.01 394.722 241.789 388.433 241.48L377.042 240.92C370.753 240.61 364.803 236.331 363.75 231.359L355.192 190.86Z" fill="black" fill-opacity="0.04"/>
<path d="M838.238 527.192L778.185 519.398C770.815 518.441 763.245 512.996 761.273 507.233L757.707 496.801C755.738 491.041 760.116 487.146 767.488 488.101L827.541 495.895L811.498 448.954C809.529 443.194 813.907 439.299 821.279 440.254L834.625 441.986C841.994 442.942 849.565 448.387 851.537 454.15L867.581 501.091L927.634 508.885C935.004 509.841 942.574 515.286 944.546 521.049L948.112 531.481C950.081 537.242 945.701 541.138 938.331 540.182L878.278 532.388L894.321 579.329C896.29 585.089 891.91 588.985 884.541 588.029L871.194 586.297C863.825 585.34 856.254 579.895 854.282 574.132L838.238 527.192Z" fill="black" fill-opacity="0.04"/>
<path d="M456.215 543.8L437.782 519.619C436.675 518.166 436.932 515.964 438.357 514.7L443.517 510.125C444.942 508.861 446.995 509.015 448.102 510.468L460.519 526.757L494.739 496.415C496.164 495.151 498.217 495.305 499.325 496.758L503.335 502.019C504.442 503.471 504.185 505.673 502.76 506.937L460.8 544.143C459.375 545.406 457.322 545.253 456.215 543.8V543.8Z" fill="black" fill-opacity="0.04"/>
<path d="M912.477 793.233L894.045 769.052C892.938 767.599 893.195 765.397 894.62 764.133L899.78 759.558C901.205 758.294 903.258 758.448 904.365 759.901L916.782 776.19L951.002 745.848C952.427 744.584 954.48 744.738 955.587 746.19L959.598 751.452C960.705 752.904 960.448 755.106 959.023 756.37L917.063 793.576C915.638 794.839 913.585 794.686 912.477 793.233V793.233Z" fill="black" fill-opacity="0.04"/>
<path d="M169.218 286.93L169.617 251.781C169.666 247.468 165.334 243.99 159.939 244.01L150.173 244.051C144.78 244.074 140.369 247.589 140.318 251.904L139.919 287.053L95.9752 287.237C90.5826 287.26 86.1714 290.774 86.1203 295.089L86.0318 302.901C85.9829 307.214 90.3148 310.693 95.7095 310.672L139.654 310.488L139.255 345.636C139.206 349.95 143.538 353.428 148.933 353.407L158.699 353.366C164.092 353.344 168.505 349.827 168.554 345.514L168.953 310.365L212.897 310.181C218.289 310.158 222.703 306.641 222.752 302.328L222.84 294.517C222.889 290.203 218.557 286.725 213.162 286.746L169.218 286.93Z" fill="black" fill-opacity="0.04"/>
<path d="M446.967 866.227L481.368 825.406C485.589 820.397 483.935 813.599 477.671 810.219L466.329 804.103C460.066 800.727 451.567 802.05 447.342 807.06L412.941 847.881L361.906 820.365C355.644 816.989 347.145 818.312 342.919 823.322L335.274 832.394C331.052 837.404 332.707 844.202 338.97 847.582L390.005 875.098L355.604 915.919C351.383 920.929 353.038 927.727 359.301 931.107L370.643 937.222C376.906 940.599 385.409 939.275 389.631 934.265L424.031 893.444L475.066 920.96C481.329 924.337 489.832 923.013 494.053 918.003L501.699 908.931C505.92 903.922 504.265 897.123 498.002 893.743L446.967 866.227Z" fill="black" fill-opacity="0.04"/>
<path d="M1049.48 949.605L989.425 941.812C982.056 940.855 974.485 935.41 972.513 929.647L968.947 919.215C966.978 913.455 971.357 909.56 978.728 910.515L1038.78 918.308L1022.74 871.368C1020.77 865.607 1025.15 861.713 1032.52 862.667L1045.87 864.4C1053.23 865.356 1060.8 870.801 1062.78 876.564L1078.82 923.505L1138.87 931.299C1146.24 932.255 1153.81 937.7 1155.79 943.463L1159.35 953.895C1161.32 959.656 1156.94 963.552 1149.57 962.596L1089.52 954.802L1105.56 1001.74C1107.53 1007.5 1103.15 1011.4 1095.78 1010.44L1082.43 1008.71C1075.06 1007.75 1067.49 1002.31 1065.52 996.546L1049.48 949.605Z" fill="black" fill-opacity="0.04"/>
<path d="M714.802 323.853L696.369 299.672C695.262 298.219 695.519 296.017 696.944 294.754L702.104 290.178C703.529 288.915 705.582 289.068 706.689 290.521L719.106 306.811L753.326 276.468C754.751 275.205 756.804 275.358 757.912 276.811L761.922 282.072C763.029 283.525 762.772 285.727 761.347 286.99L719.387 324.196C717.962 325.46 715.909 325.306 714.802 323.853V323.853Z" fill="black" fill-opacity="0.04"/>
<path d="M1051.37 611.15L1081.78 625.666C1083.6 626.538 1084.66 628.582 1084.14 630.231L1082.24 636.204C1081.72 637.853 1079.81 638.483 1077.98 637.61L1057.5 627.832L1044.92 667.437C1044.4 669.086 1042.49 669.716 1040.66 668.844L1034.05 665.686C1032.22 664.814 1031.17 662.77 1031.69 661.121L1047.12 612.557C1047.64 610.908 1049.55 610.278 1051.37 611.15V611.15Z" fill="black" fill-opacity="0.04"/>
<path d="M1310.06 204.487L1340.46 219.003C1342.29 219.875 1343.34 221.919 1342.82 223.568L1340.92 229.54C1340.4 231.189 1338.49 231.819 1336.66 230.947L1316.18 221.168L1303.6 260.774C1303.08 262.423 1301.17 263.053 1299.34 262.181L1292.73 259.022C1290.9 258.15 1289.85 256.106 1290.37 254.457L1305.8 205.893C1306.32 204.244 1308.23 203.614 1310.06 204.487V204.487Z" fill="black" fill-opacity="0.04"/>
<path d="M1307.62 958.022L1338.86 972.538C1340.74 973.411 1341.82 975.454 1341.28 977.104L1339.33 983.076C1338.8 984.725 1336.84 985.355 1334.96 984.483L1313.91 974.704L1300.98 1014.31C1300.44 1015.96 1298.48 1016.59 1296.61 1015.72L1289.81 1012.56C1287.93 1011.69 1286.85 1009.64 1287.39 1007.99L1303.24 959.429C1303.78 957.78 1305.74 957.15 1307.62 958.022V958.022Z" fill="black" fill-opacity="0.04"/>
<path d="M88.4908 650.213L54.8024 639.382C52.7785 638.732 51.313 636.833 51.5293 635.141L52.3126 629.013C52.5288 627.321 54.3451 626.477 56.3691 627.128L79.0632 634.424L84.2588 593.79C84.4751 592.098 86.2914 591.253 88.3153 591.904L95.6449 594.261C97.6688 594.911 99.1342 596.81 98.918 598.502L92.5474 648.328C92.331 650.02 90.5148 650.864 88.4908 650.213V650.213Z" fill="black" fill-opacity="0.04"/>
<path d="M330.013 958.053L329.844 929.114C329.823 925.563 326.207 922.66 321.766 922.628L313.725 922.573C309.286 922.543 305.704 925.397 305.723 928.95L305.892 957.888L269.715 957.642C265.275 957.612 261.693 960.466 261.712 964.018L261.75 970.45C261.771 974.001 265.387 976.904 269.828 976.936L306.006 977.183L306.175 1006.12C306.196 1009.67 309.812 1012.58 314.253 1012.61L322.294 1012.66C326.733 1012.69 330.317 1009.84 330.296 1006.29L330.126 977.347L366.304 977.593C370.744 977.624 374.328 974.768 374.307 971.217L374.269 964.785C374.248 961.234 370.632 958.331 366.191 958.299L330.013 958.053Z" fill="black" fill-opacity="0.04"/>
<path d="M506.247 771.706L462.327 753.441C459.689 752.344 458.005 749.56 458.567 747.224L460.603 738.765C461.165 736.429 463.76 735.425 466.398 736.522L495.985 748.826L509.486 692.726C510.048 690.39 512.643 689.385 515.281 690.483L524.837 694.457C527.476 695.554 529.159 698.337 528.597 700.674L512.043 769.463C511.481 771.799 508.886 772.804 506.247 771.706V771.706Z" fill="black" fill-opacity="0.04"/>
<path d="M219.133 230.952L175.213 212.687C172.574 211.59 170.891 208.807 171.453 206.471L173.488 198.011C174.05 195.675 176.645 194.671 179.284 195.768L208.87 208.072L222.371 151.972C222.933 149.636 225.528 148.632 228.167 149.729L237.722 153.703C240.361 154.8 242.044 157.584 241.482 159.92L224.928 228.71C224.366 231.046 221.771 232.05 219.133 230.952V230.952Z" fill="black" fill-opacity="0.04"/>
<path d="M1001.12 159L1048.83 160.714C1051.7 160.817 1054.81 162.651 1055.78 164.811L1059.3 172.632C1060.27 174.792 1058.74 176.459 1055.87 176.356L1023.73 175.202L1047.07 227.069C1048.04 229.229 1046.5 230.896 1043.64 230.793L1033.25 230.42C1030.39 230.317 1027.28 228.483 1026.3 226.323L997.686 162.724C996.714 160.564 998.25 158.897 1001.12 159V159Z" fill="black" fill-opacity="0.04"/>
<path d="M1122.56 28.3358L1170.27 30.0495C1173.14 30.1525 1176.25 31.9868 1177.22 34.1465L1180.74 41.9675C1181.71 44.1273 1180.18 45.7947 1177.31 45.6917L1145.17 44.5374L1168.51 96.4048C1169.48 98.5644 1167.94 100.232 1165.07 100.129L1154.69 99.756C1151.83 99.653 1148.71 97.8187 1147.74 95.659L1119.12 32.0598C1118.15 29.9001 1119.69 28.2328 1122.56 28.3358V28.3358Z" fill="black" fill-opacity="0.04"/>
<path d="M693.814 693.05L649.894 674.785C647.255 673.687 645.572 670.904 646.134 668.568L648.169 660.109C648.732 657.773 651.327 656.768 653.965 657.866L683.552 670.17L697.052 614.069C697.614 611.733 700.209 610.729 702.848 611.826L712.404 615.8C715.042 616.898 716.726 619.681 716.164 622.017L699.61 690.807C699.048 693.143 696.453 694.147 693.814 693.05V693.05Z" fill="black" fill-opacity="0.04"/>
<path d="M854.708 276.723L904.208 276.499C907.182 276.485 910.294 278.319 911.159 280.596L914.29 288.838C915.154 291.114 913.444 292.971 910.47 292.984L877.124 293.135L897.887 347.798C898.751 350.074 897.041 351.931 894.067 351.944L883.297 351.993C880.323 352.006 877.212 350.172 876.347 347.896L850.888 280.868C850.023 278.592 851.733 276.736 854.708 276.723V276.723Z" fill="black" fill-opacity="0.04"/>
<path d="M550.65 608L562.875 597.197C564.375 595.871 564.375 593.722 562.875 592.395L560.158 589.994C558.658 588.669 556.226 588.669 554.724 589.994L542.5 600.797L530.276 589.994C528.775 588.669 526.343 588.669 524.842 589.994L522.125 592.395C520.625 593.721 520.625 595.87 522.125 597.197L534.35 608L522.125 618.803C520.625 620.129 520.625 622.278 522.125 623.605L524.842 626.006C526.342 627.331 528.775 627.331 530.276 626.006L542.5 615.203L554.724 626.006C556.225 627.331 558.658 627.331 560.158 626.006L562.875 623.605C564.375 622.279 564.375 620.13 562.875 618.803L550.65 608Z" fill="black" fill-opacity="0.04"/>
<path d="M263.65 66.5L275.875 55.9813C277.375 54.6905 277.375 52.5977 275.875 51.3058L273.158 48.9681C271.658 47.6773 269.226 47.6773 267.724 48.9681L255.5 59.4868L243.276 48.9681C241.775 47.6773 239.343 47.6773 237.842 48.9681L235.125 51.3058C233.625 52.5966 233.625 54.6894 235.125 55.9813L247.35 66.5L235.125 77.0187C233.625 78.3095 233.625 80.4023 235.125 81.6942L237.842 84.0319C239.342 85.3227 241.775 85.3227 243.276 84.0319L255.5 73.5132L267.724 84.0319C269.225 85.3227 271.658 85.3227 273.158 84.0319L275.875 81.6942C277.375 80.4034 277.375 78.3106 275.875 77.0187L263.65 66.5Z" fill="black" fill-opacity="0.04"/>
<path d="M1381.34 151L1393.85 140.197C1395.38 138.871 1395.38 136.722 1393.85 135.395L1391.07 132.994C1389.53 131.669 1387.05 131.669 1385.51 132.994L1373 143.797L1360.49 132.994C1358.96 131.669 1356.47 131.669 1354.93 132.994L1352.15 135.395C1350.62 136.721 1350.62 138.87 1352.15 140.197L1364.66 151L1352.15 161.803C1350.62 163.129 1350.62 165.278 1352.15 166.605L1354.93 169.006C1356.47 170.331 1358.96 170.331 1360.49 169.006L1373 158.203L1385.51 169.006C1387.04 170.331 1389.53 170.331 1391.07 169.006L1393.85 166.605C1395.38 165.279 1395.38 163.13 1393.85 161.803L1381.34 151Z" fill="black" fill-opacity="0.04"/>
<path d="M1380.72 905L1393.8 894.766C1395.4 893.51 1395.4 891.473 1393.8 890.216L1390.89 887.942C1389.29 886.686 1386.68 886.686 1385.08 887.942L1372 898.176L1358.92 887.942C1357.32 886.686 1354.72 886.686 1353.11 887.942L1350.2 890.216C1348.6 891.472 1348.6 893.509 1350.2 894.766L1363.28 905L1350.2 915.234C1348.6 916.49 1348.6 918.527 1350.2 919.784L1353.11 922.058C1354.71 923.314 1357.32 923.314 1358.92 922.058L1372 911.824L1385.08 922.058C1386.68 923.314 1389.29 923.314 1390.89 922.058L1393.8 919.784C1395.4 918.528 1395.4 916.491 1393.8 915.234L1380.72 905Z" fill="black" fill-opacity="0.04"/>
<path d="M67.6566 508.128L56.7636 519.947C55.4269 521.398 55.826 523.456 57.6553 524.546L60.9678 526.519C62.7969 527.608 65.3633 527.315 66.7013 525.864L77.5943 514.045L92.4993 522.92C94.3284 524.009 96.8948 523.716 98.2328 522.265L100.654 519.638C101.99 518.188 101.591 516.129 99.762 515.039L84.8569 506.165L95.7499 494.345C97.0866 492.895 96.6875 490.836 94.8582 489.746L91.5457 487.774C89.7166 486.684 87.1489 486.978 85.8122 488.428L74.9192 500.247L60.0142 491.373C58.1851 490.284 55.6174 490.577 54.2807 492.027L51.8598 494.654C50.5231 496.104 50.9222 498.163 52.7515 499.253L67.6566 508.128Z" fill="black" fill-opacity="0.04"/>
<path d="M1029.43 328.202L1024.01 342.187C1023.35 343.903 1024.55 345.725 1026.7 346.258L1030.58 347.22C1032.73 347.751 1035.01 346.791 1035.67 345.074L1041.09 331.089L1058.57 335.419C1060.72 335.951 1062.99 334.99 1063.66 333.274L1064.86 330.165C1065.53 328.449 1064.33 326.627 1062.18 326.095L1044.7 321.764L1050.11 307.779C1050.77 306.063 1049.57 304.241 1047.43 303.708L1043.54 302.746C1041.4 302.214 1039.12 303.175 1038.45 304.892L1033.04 318.877L1015.55 314.546C1013.41 314.015 1011.13 314.976 1010.46 316.692L1009.26 319.8C1008.6 321.517 1009.8 323.339 1011.94 323.871L1029.43 328.202Z" fill="black" fill-opacity="0.04"/>
<path d="M1150.87 197.537L1145.45 211.523C1144.79 213.239 1145.99 215.061 1148.14 215.593L1152.02 216.556C1154.17 217.087 1156.45 216.127 1157.11 214.41L1162.52 200.425L1180.01 204.755C1182.15 205.287 1184.43 204.326 1185.1 202.609L1186.3 199.501C1186.97 197.785 1185.77 195.963 1183.62 195.431L1166.13 191.1L1171.55 177.115C1172.21 175.398 1171.01 173.576 1168.87 173.044L1164.98 172.082C1162.83 171.55 1160.56 172.511 1159.89 174.227L1154.48 188.213L1136.99 183.882C1134.85 183.351 1132.57 184.312 1131.9 186.028L1130.7 189.136C1130.04 190.852 1131.24 192.674 1133.38 193.207L1150.87 197.537Z" fill="black" fill-opacity="0.04"/>
<path d="M1168.47 880.543L1162.91 894.528C1162.23 896.245 1163.46 898.067 1165.67 898.599L1169.66 899.561C1171.86 900.093 1174.21 899.132 1174.89 897.416L1180.45 883.43L1198.42 887.761C1200.63 888.292 1202.97 887.332 1203.65 885.615L1204.89 882.507C1205.57 880.791 1204.34 878.969 1202.13 878.436L1184.16 874.106L1189.73 860.12C1190.41 858.404 1189.18 856.582 1186.97 856.05L1182.98 855.087C1180.77 854.556 1178.43 855.517 1177.75 857.233L1172.18 871.218L1154.21 866.888C1152.01 866.356 1149.67 867.317 1148.98 869.034L1147.75 872.142C1147.06 873.858 1148.3 875.68 1150.5 876.212L1168.47 880.543Z" fill="black" fill-opacity="0.04"/>
<path d="M240.977 711.14L243.799 696.679C244.145 694.904 242.575 693.241 240.291 692.964L236.157 692.463C233.874 692.186 231.742 693.4 231.395 695.176L228.573 709.637L209.97 707.382C207.687 707.105 205.556 708.32 205.208 710.095L204.581 713.309C204.235 715.083 205.805 716.746 208.089 717.024L226.692 719.279L223.871 733.74C223.525 735.515 225.095 737.178 227.378 737.455L231.513 737.956C233.796 738.233 235.928 737.018 236.274 735.243L239.096 720.782L257.699 723.037C259.982 723.314 262.115 722.099 262.461 720.324L263.088 717.11C263.434 715.335 261.864 713.673 259.581 713.395L240.977 711.14Z" fill="black" fill-opacity="0.04"/>
<path d="M919.707 976.535L914.293 990.52C913.629 992.236 914.829 994.058 916.976 994.591L920.861 995.553C923.007 996.085 925.285 995.124 925.95 993.407L931.365 979.422L948.849 983.753C950.995 984.284 953.273 983.324 953.938 981.607L955.141 978.499C955.806 976.782 954.605 974.96 952.459 974.428L934.974 970.098L940.388 956.112C941.053 954.396 939.852 952.574 937.706 952.042L933.82 951.079C931.674 950.548 929.395 951.509 928.731 953.225L923.317 967.21L905.832 962.88C903.687 962.348 901.408 963.309 900.743 965.025L899.54 968.134C898.876 969.85 900.076 971.672 902.223 972.204L919.707 976.535Z" fill="black" fill-opacity="0.04"/>
<path d="M438.409 588.5L451.77 577.981C453.41 576.69 453.41 574.598 451.77 573.306L448.801 570.968C447.161 569.677 444.503 569.677 442.862 570.968L429.5 581.487L416.138 570.968C414.499 569.677 411.84 569.677 410.199 570.968L407.23 573.306C405.59 574.597 405.59 576.689 407.23 577.981L420.591 588.5L407.23 599.019C405.59 600.31 405.59 602.402 407.23 603.694L410.199 606.032C411.839 607.323 414.499 607.323 416.138 606.032L429.5 595.513L442.862 606.032C444.501 607.323 447.161 607.323 448.801 606.032L451.77 603.694C453.41 602.403 453.41 600.311 451.77 599.019L438.409 588.5Z" fill="black" fill-opacity="0.04"/>
<path d="M150.719 48L163.796 37.7656C165.401 36.5097 165.401 34.4734 163.796 33.2165L160.89 30.9419C159.285 29.686 156.683 29.686 155.077 30.9419L142 41.1764L128.923 30.9419C127.318 29.686 124.716 29.686 123.11 30.9419L120.204 33.2165C118.599 34.4724 118.599 36.5086 120.204 37.7656L133.281 48L120.204 58.2344C118.599 59.4903 118.599 61.5266 120.204 62.7835L123.11 65.0581C124.715 66.314 127.318 66.314 128.923 65.0581L142 54.8236L155.077 65.0581C156.682 66.314 159.285 66.314 160.89 65.0581L163.796 62.7835C165.401 61.5276 165.401 59.4914 163.796 58.2344L150.719 48Z" fill="black" fill-opacity="0.04"/>
<path d="M913.03 858L925.823 847.197C927.392 845.871 927.392 843.722 925.823 842.395L922.979 839.994C921.41 838.669 918.864 838.669 917.293 839.994L904.5 850.797L891.707 839.994C890.137 838.669 887.592 838.669 886.021 839.994L883.177 842.395C881.608 843.721 881.608 845.87 883.177 847.197L895.97 858L883.177 868.803C881.608 870.129 881.608 872.278 883.177 873.605L886.021 876.006C887.59 877.331 890.137 877.331 891.707 876.006L904.5 865.203L917.293 876.006C918.863 877.331 921.41 877.331 922.979 876.006L925.823 873.605C927.392 872.279 927.392 870.13 925.823 868.803L913.03 858Z" fill="black" fill-opacity="0.04"/>
<path d="M1025.86 518.559L1060.11 528.906C1064.31 530.176 1069.01 528.48 1070.59 525.118L1073.47 519.03C1075.06 515.669 1072.94 511.914 1068.73 510.643L1034.49 500.296L1047.42 472.904C1049.01 469.543 1046.89 465.788 1042.69 464.517L1035.08 462.217C1030.87 460.947 1026.18 462.643 1024.59 466.005L1011.66 493.397L977.41 483.051C973.208 481.781 968.514 483.477 966.924 486.839L964.05 492.927C962.462 496.288 964.583 500.044 968.786 501.314L1003.03 511.661L990.096 539.053C988.508 542.414 990.629 546.17 994.832 547.44L1002.44 549.739C1006.64 551.009 1011.34 549.313 1012.93 545.951L1025.86 518.559Z" fill="black" fill-opacity="0.04"/>
<path d="M378.059 667L403.645 646.531C406.785 644.019 406.785 639.947 403.645 637.433L397.959 632.884C394.819 630.372 389.728 630.372 386.586 632.884L361 653.353L335.414 632.884C332.274 630.372 327.184 630.372 324.041 632.884L318.355 637.433C315.215 639.945 315.215 644.017 318.355 646.531L343.941 667L318.355 687.469C315.215 689.981 315.215 694.053 318.355 696.567L324.041 701.116C327.181 703.628 332.274 703.628 335.414 701.116L361 680.647L386.586 701.116C389.726 703.628 394.819 703.628 397.959 701.116L403.645 696.567C406.785 694.055 406.785 689.983 403.645 687.469L378.059 667Z" fill="black" fill-opacity="0.04"/>
<path d="M91.0591 125.5L116.645 104.747C119.785 102.2 119.785 98.0711 116.645 95.5223L110.959 90.91C107.819 88.3633 102.728 88.3633 99.5861 90.91L74 111.663L48.4139 90.91C45.2741 88.3633 40.1835 88.3633 37.0412 90.91L31.3548 95.5223C28.2151 98.069 28.2151 102.198 31.3548 104.747L56.9409 125.5L31.3548 146.253C28.2151 148.8 28.2151 152.929 31.3548 155.478L37.0412 160.09C40.181 162.637 45.2741 162.637 48.4139 160.09L74 139.337L99.5861 160.09C102.726 162.637 107.819 162.637 110.959 160.09L116.645 155.478C119.785 152.931 119.785 148.802 116.645 146.253L91.0591 125.5Z" fill="black" fill-opacity="0.04"/>
<path d="M804.749 961.5L830.619 940.747C833.794 938.2 833.794 934.071 830.619 931.522L824.869 926.91C821.695 924.363 816.548 924.363 813.37 926.91L787.5 947.663L761.63 926.91C758.455 924.363 753.308 924.363 750.131 926.91L744.381 931.522C741.206 934.069 741.206 938.198 744.381 940.747L770.251 961.5L744.381 982.253C741.206 984.8 741.206 988.929 744.381 991.478L750.131 996.09C753.305 998.637 758.455 998.637 761.63 996.09L787.5 975.337L813.37 996.09C816.545 998.637 821.695 998.637 824.869 996.09L830.619 991.478C833.794 988.931 833.794 984.802 830.619 982.253L804.749 961.5Z" fill="black" fill-opacity="0.04"/>
<path d="M1087.21 799.798L1057.42 816.825C1053.77 818.915 1052.92 822.978 1055.54 825.904L1060.27 831.198C1062.88 834.121 1067.96 834.797 1071.62 832.708L1101.4 815.681L1122.68 839.502C1125.3 842.426 1130.38 843.102 1134.03 841.012L1140.65 837.228C1144.31 835.139 1145.15 831.075 1142.54 828.15L1121.25 804.329L1151.04 787.302C1154.69 785.212 1155.54 781.149 1152.92 778.223L1148.19 772.929C1145.58 770.006 1140.5 769.33 1136.84 771.419L1107.06 788.446L1085.77 764.624C1083.16 761.701 1078.08 761.025 1074.42 763.114L1067.81 766.899C1064.15 768.988 1063.31 773.052 1065.92 775.977L1087.21 799.798Z" fill="black" fill-opacity="0.04"/>
<path d="M672.333 168.217L633.972 226.362C631.667 229.856 625.799 232.563 620.864 232.411L602.995 231.856C598.06 231.703 595.928 228.747 598.233 225.254L624.075 186.085L505.569 182.408C500.634 182.255 498.502 179.299 500.807 175.806L509.153 163.155C511.458 159.662 517.327 156.954 522.261 157.107L667.572 161.615C672.507 161.768 674.638 164.724 672.333 168.217V168.217Z" fill="black" fill-opacity="0.04"/>
<path d="M1251.83 755.734L1251.87 689.99C1251.87 686.04 1255.48 681.455 1259.94 679.75L1276.07 673.575C1280.52 671.87 1284.13 673.69 1284.13 677.64L1284.11 721.928L1391.08 680.979C1395.54 679.274 1399.15 681.094 1399.14 685.044L1399.13 699.348C1399.13 703.298 1395.52 707.882 1391.06 709.587L1259.89 759.799C1255.44 761.504 1251.83 759.684 1251.83 755.734V755.734Z" fill="black" fill-opacity="0.04"/>
<path d="M182.461 844.001L195.031 909.035C195.786 912.942 193.091 917.884 189.013 920.074L174.241 928.003C170.162 930.192 166.243 928.8 165.488 924.892L157.02 881.083L59.0611 933.664C54.9823 935.853 51.0631 934.461 50.308 930.554L47.5734 916.404C46.8182 912.497 49.5126 907.555 53.5916 905.365L173.708 840.891C177.787 838.702 181.706 840.094 182.461 844.001V844.001Z" fill="black" fill-opacity="0.04"/>
<path d="M472.248 355.825L457.541 301.217C456.658 297.936 458.924 293.968 462.603 292.355L475.927 286.512C479.606 284.898 483.305 286.25 484.189 289.531L494.096 326.318L582.456 287.572C586.135 285.959 589.835 287.311 590.718 290.592L593.918 302.473C594.801 305.754 592.535 309.721 588.856 311.335L480.51 358.845C476.831 360.458 473.132 359.106 472.248 355.825V355.825Z" fill="black" fill-opacity="0.04"/>
<path d="M610.425 474.381L561.489 480.349C558.549 480.707 555.138 479.254 553.869 477.102L549.276 469.31C548.007 467.159 549.363 465.123 552.303 464.765L585.268 460.745L554.807 409.07C553.539 406.919 554.894 404.883 557.834 404.525L568.481 403.227C571.421 402.868 574.833 404.322 576.102 406.473L613.452 469.836C614.721 471.988 613.365 474.023 610.425 474.381V474.381Z" fill="black" fill-opacity="0.04"/>
<path d="M606.455 867.37L578.3 834.803C576.608 832.847 576.746 829.757 578.608 827.902L585.351 821.184C587.212 819.329 590.093 819.411 591.785 821.368L610.752 843.306L655.467 798.757C657.329 796.903 660.21 796.985 661.902 798.941L668.027 806.027C669.719 807.984 669.581 811.073 667.719 812.929L612.889 867.554C611.027 869.409 608.146 869.327 606.455 867.37V867.37Z" fill="black" fill-opacity="0.04"/>
<path d="M1085.9 420.167L1125.71 396.635C1128.1 395.222 1131.97 395.235 1134.35 396.665L1142.95 401.845C1145.33 403.275 1145.32 405.581 1142.92 406.995L1116.11 422.847L1173.18 457.198C1175.55 458.628 1175.54 460.934 1173.15 462.348L1164.49 467.467C1162.1 468.881 1158.23 468.868 1155.85 467.438L1085.87 425.317C1083.5 423.887 1083.51 421.581 1085.9 420.167V420.167Z" fill="black" fill-opacity="0.04"/>
<path d="M170.247 647.547L140.347 615.296C138.551 613.358 138.551 610.216 140.347 608.279L146.852 601.262C148.649 599.324 151.562 599.324 153.358 601.262L173.5 622.987L216.642 576.453C218.438 574.516 221.351 574.516 223.148 576.453L229.653 583.47C231.449 585.408 231.449 588.549 229.653 590.487L176.753 647.547C174.956 649.484 172.044 649.484 170.247 647.547V647.547Z" fill="black" fill-opacity="0.04"/>
<path d="M579.908 965.606L550.333 934.662C548.556 932.803 548.556 929.789 550.333 927.93L556.767 921.197C558.544 919.338 561.425 919.338 563.202 921.197L583.125 942.042L625.798 897.394C627.575 895.535 630.456 895.535 632.233 897.394L638.667 904.127C640.444 905.986 640.444 909 638.667 910.859L586.342 965.606C584.565 967.465 581.684 967.465 579.908 965.606V965.606Z" fill="black" fill-opacity="0.04"/>
<path d="M642.667 546.074L665.539 510.959C666.914 508.849 670.395 507.505 673.315 507.957L683.889 509.592C686.809 510.044 688.062 512.12 686.688 514.23L671.28 537.885L741.405 548.732C744.325 549.183 745.578 551.26 744.204 553.37L739.228 561.01C737.854 563.119 734.372 564.463 731.452 564.012L645.466 550.712C642.546 550.26 641.293 548.183 642.667 546.074V546.074Z" fill="black" fill-opacity="0.04"/>
<path d="M945.053 406.419L945.29 446.013C945.305 448.392 943.009 450.88 940.162 451.569L929.855 454.067C927.008 454.756 924.689 453.387 924.675 451.008L924.515 424.335L856.157 440.896C853.311 441.585 850.992 440.216 850.977 437.837L850.926 429.222C850.912 426.844 853.207 424.356 856.054 423.667L939.873 403.36C942.72 402.671 945.039 404.04 945.053 406.419V406.419Z" fill="black" fill-opacity="0.04"/>
</svg>
