<svg width="230" height="256" viewBox="0 0 230 256" fill="none" xmlns="http://www.w3.org/2000/svg">
<g clip-path="url(#clip0)">
<path d="M158.595 128L223.982 77.965C232.006 71.825 232.006 61.87 223.982 55.725L209.45 44.605C201.426 38.465 188.417 38.465 180.387 44.605L115 94.64L49.6134 44.605C41.5895 38.465 28.5801 38.465 20.5497 44.605L6.0179 55.725C-2.00597 61.865 -2.00597 71.82 6.0179 77.965L71.4045 128L6.0179 178.035C-2.00597 184.175 -2.00597 194.13 6.0179 200.275L20.5497 211.395C28.5736 217.535 41.5895 217.535 49.6134 211.395L115 161.36L180.387 211.395C188.411 217.535 201.426 217.535 209.45 211.395L223.982 200.275C232.006 194.135 232.006 184.18 223.982 178.035L158.595 128Z" fill="#787878"/>
</g>
<defs>
<clipPath id="clip0">
<rect width="230" height="256" fill="white"/>
</clipPath>
</defs>
</svg>
